<?xml version="1.0" encoding="UTF-8"?>
<svg width="17px" height="17px" viewBox="0 0 17 17" version="1.1" xmlns="http://www.w3.org/2000/svg" xmlns:xlink="http://www.w3.org/1999/xlink">
    <!-- Generator: Sketch 57.1 (83088) - https://sketch.com -->
    <title>close</title>
    <desc>Created with Sketch.</desc>
    <g id="Page-1" stroke="none" stroke-width="1" fill="none" fill-rule="evenodd" fill-opacity="0.6">
        <path d="M8.46679688,16.9335938 C7.31021557,16.9335938 6.22144065,16.7122418 5.20043945,16.2695312 C4.17943825,15.8268207 3.2788125,15.2153359 2.49853516,14.4350586 C1.71825782,13.6547813 1.10677305,12.7541555 0.6640625,11.7331543 C0.221351953,10.7121531 0,9.62337818 0,8.46679688 C0,7.31021557 0.221351953,6.22144065 0.6640625,5.20043945 C1.10677305,4.17943825 1.71687437,3.2788125 2.49438477,2.49853516 C3.27189516,1.71825782 4.17113747,1.10677305 5.19213867,0.6640625 C6.21313987,0.221351953 7.30191479,0 8.45849609,0 C9.6150774,0 10.7052358,0.221351953 11.7290039,0.6640625 C12.752772,1.10677305 13.6547813,1.71825782 14.4350586,2.49853516 C15.2153359,3.2788125 15.8268207,4.17943825 16.2695312,5.20043945 C16.7122418,6.22144065 16.9335938,7.31021557 16.9335938,8.46679688 C16.9335938,9.62337818 16.7122418,10.7121531 16.2695312,11.7331543 C15.8268207,12.7541555 15.2153359,13.6547813 14.4350586,14.4350586 C13.6547813,15.2153359 12.7541555,15.8268207 11.7331543,16.2695312 C10.7121531,16.7122418 9.62337818,16.9335938 8.46679688,16.9335938 Z M5.53662109,12.0859375 C5.73584084,12.0859375 5.9046217,12.016765 6.04296875,11.878418 L8.45849609,9.44628906 L10.890625,11.878418 C11.0345059,12.016765 11.197753,12.0859375 11.3803711,12.0859375 C11.574057,12.0859375 11.737304,12.0181485 11.8701172,11.8825684 C12.0029304,11.7469883 12.0693359,11.5823577 12.0693359,11.3886719 C12.0693359,11.2060538 12.0029304,11.0428067 11.8701172,10.8989258 L9.43798828,8.47509766 L11.878418,6.03466797 C12.0112311,5.89078704 12.0776367,5.72753998 12.0776367,5.54492188 C12.0776367,5.35676989 12.0112311,5.19628973 11.878418,5.06347656 C11.7456048,4.9306634 11.5851246,4.86425781 11.3969727,4.86425781 C11.2143546,4.86425781 11.0566413,4.9334303 10.9238281,5.07177734 L8.45849609,7.51220703 L6.01806641,5.08007812 C5.89632101,4.94726496 5.73584084,4.88085938 5.53662109,4.88085938 C5.34846911,4.88085938 5.18798895,4.94588151 5.05517578,5.07592773 C4.92236262,5.20597396 4.85595703,5.36783757 4.85595703,5.56152344 C4.85595703,5.74967542 4.92236262,5.91015559 5.05517578,6.04296875 L7.48730469,8.47509766 L5.05517578,10.9072266 C4.92236262,11.0400397 4.85595703,11.2005199 4.85595703,11.3886719 C4.85595703,11.5823577 4.92236262,11.7469883 5.05517578,11.8825684 C5.18798895,12.0181485 5.34846911,12.0859375 5.53662109,12.0859375 Z" id="close" fill="#3C3C43" fill-rule="nonzero"></path>
    </g>
</svg>