<?xml version="1.0" encoding="UTF-8"?>
<svg width="512px" height="488px" viewBox="0 0 512 488" version="1.1" xmlns="http://www.w3.org/2000/svg" xmlns:xlink="http://www.w3.org/1999/xlink">
    <!-- Generator: Sketch 55.2 (78181) - https://sketchapp.com -->
    <title>Combined Shape</title>
    <desc>Created with Sketch.</desc>
    <g id="Page-1" stroke="none" stroke-width="1" fill="none" fill-rule="evenodd">
        <g id="empty" fill="#000000" fill-rule="nonzero">
            <path d="M455.074219,172.613281 L509.070312,226.609375 C511.296875,228.832031 512.34375,231.976562 511.898438,235.089844 C511.457031,238.203125 509.570312,240.929688 506.8125,242.445312 L450.929688,273.128906 L450.929688,375.699219 C450.929688,379.351562 448.941406,382.710938 445.742188,384.46875 L260.8125,486.011719 C259.3125,486.835938 257.65625,487.246094 256,487.246094 C254.34375,487.246094 252.6875,486.835938 251.1875,486.011719 L66.257812,384.46875 C63.058594,382.710938 61.070312,379.351562 61.070312,375.699219 L61.070312,273.128906 L5.1875,242.441406 C2.429688,240.929688 0.542969,238.203125 0.101562,235.089844 C-0.34375,231.972656 0.703125,228.832031 2.929688,226.605469 L56.925781,172.613281 L2.929688,118.617188 C0.703125,116.394531 -0.34375,113.25 0.101562,110.136719 C0.542969,107.019531 2.429688,104.296875 5.1875,102.78125 L190.117188,1.234375 C194.011719,-0.902344 198.855469,-0.214844 202,2.929688 L256,56.929688 L310,2.929688 C313.140625,-0.214844 317.984375,-0.90625 321.882812,1.234375 L375.300781,30.570312 C380.144531,33.226562 381.914062,39.308594 379.253906,44.148438 C376.597656,48.992188 370.515625,50.757812 365.675781,48.101562 L318.835938,22.378906 L272.5,68.714844 L439.167969,160.234375 L485.507812,113.898438 L432.273438,84.667969 C427.429688,82.011719 425.664062,75.933594 428.320312,71.089844 C430.980469,66.25 437.058594,64.480469 441.898438,67.136719 L506.8125,102.78125 C509.570312,104.296875 511.457031,107.023438 511.898438,110.136719 C512.34375,113.25 511.296875,116.394531 509.070312,118.617188 L455.074219,172.613281 Z M256,262.746094 L420.152344,172.609375 L256,82.46875 L91.847656,172.609375 L256,262.746094 Z M193.167969,22.378906 L26.496094,113.898438 L72.832031,160.234375 L239.5,68.714844 L193.167969,22.378906 Z M72.839844,184.988281 L26.496094,231.328125 L193.167969,322.847656 L239.507812,276.507812 L72.839844,184.988281 Z M430.929688,369.785156 L430.929688,284.113281 L321.882812,343.992188 C320.371094,344.820312 318.714844,345.226562 317.074219,345.226562 C314.484375,345.226562 311.921875,344.222656 310,342.296875 L256,288.296875 L202,342.296875 C200.078125,344.21875 197.515625,345.226562 194.925781,345.226562 C193.285156,345.226562 191.628906,344.820312 190.117188,343.992188 L81.070312,284.113281 L81.070312,369.785156 L246,460.347656 L246,358.125 C246,352.601562 250.476562,348.125 256,348.125 C261.523438,348.125 266,352.601562 266,358.125 L266,460.347656 L430.929688,369.785156 Z M318.835938,322.847656 L485.507812,231.324219 L439.164062,184.988281 L272.496094,276.503906 L318.835938,322.847656 Z M404.800781,68.175781 C402.171875,68.175781 399.589844,67.105469 397.730469,65.242188 C395.859375,63.382812 394.800781,60.804688 394.800781,58.175781 C394.800781,55.542969 395.859375,52.964844 397.730469,51.105469 C399.589844,49.242188 402.160156,48.175781 404.800781,48.175781 C407.429688,48.175781 410.011719,49.242188 411.871094,51.105469 C413.730469,52.964844 414.800781,55.542969 414.800781,58.175781 C414.800781,60.804688 413.730469,63.382812 411.871094,65.242188 C410,67.105469 407.429688,68.175781 404.800781,68.175781 Z M256,314.925781 C258.628906,314.925781 261.210938,315.992188 263.070312,317.855469 C264.929688,319.722656 266,322.292969 266,324.925781 C266,327.5625 264.929688,330.132812 263.070312,332.003906 C261.210938,333.863281 258.628906,334.925781 256,334.925781 C253.371094,334.925781 250.789062,333.863281 248.929688,332.003906 C247.070312,330.132812 246,327.5625 246,324.925781 C246,322.292969 247.070312,319.722656 248.929688,317.855469 C250.789062,315.992188 253.371094,314.925781 256,314.925781 Z" id="Combined-Shape"></path>
        </g>
    </g>
</svg>