<?xml version="1.0" encoding="UTF-8"?>
<svg width="126px" height="126px" viewBox="0 0 126 126" version="1.1" xmlns="http://www.w3.org/2000/svg" xmlns:xlink="http://www.w3.org/1999/xlink">
    <!-- Generator: Sketch 55.2 (78181) - https://sketchapp.com -->
    <title>Combined Shape</title>
    <desc>Created with Sketch.</desc>
    <g id="Page-1" stroke="none" stroke-width="1" fill="none" fill-rule="evenodd">
        <g id="Match---Empty" transform="translate(-323.000000, -1100.000000)" fill="#4A4A4A" fill-rule="nonzero">
            <path d="M386.010133,1100 C420.821867,1100 449.011733,1128.1984 449.011733,1163.01013 C449.011733,1197.8048 420.821867,1226.016 386.010133,1226.016 C351.1984,1226.016 323,1197.8048 323,1163.01013 C323,1128.1984 351.1984,1100 386.010133,1100 Z M386.010133,1215.7376 C415.1344,1215.7376 438.746133,1192.1344 438.746133,1163.01013 C438.746133,1133.87733 415.1344,1110.26133 386.010133,1110.26133 C356.885867,1110.26133 333.2784,1133.87307 333.2784,1163.00587 C333.2784,1192.1344 356.885867,1215.7376 386.010133,1215.7376 Z M392.7088,1176.63787 L379.4352,1176.63787 L376.866667,1123.8976 L395.2688,1123.8976 L392.7088,1176.63787 Z M386.0656,1182.4448 C392.2352,1182.4448 396.309867,1186.7584 396.425067,1193.04747 C396.425067,1199.0976 392.3504,1203.63733 386.0656,1203.63733 L385.8224,1203.63733 C379.7808,1203.63733 375.590933,1199.0976 375.590933,1193.04747 C375.590933,1186.7584 379.900267,1182.4448 386.0656,1182.4448 Z" id="Combined-Shape"></path>
        </g>
    </g>
</svg>