<?xml version="1.0" encoding="UTF-8"?>
<svg width="113px" height="84px" viewBox="0 0 113 84" version="1.1" xmlns="http://www.w3.org/2000/svg" xmlns:xlink="http://www.w3.org/1999/xlink">
    <!-- Generator: Sketch 57.1 (83088) - https://sketch.com -->
    <title>Combined Shape</title>
    <desc>Created with Sketch.</desc>
    <g id="Page-1" stroke="none" stroke-width="1" fill="none" fill-rule="evenodd">
        <g id="Retina-HD-5.5" transform="translate(-220.000000, -1588.000000)" fill="#FFFFFF" fill-rule="nonzero">
            <g id="Login-with-facebook*" transform="translate(172.000000, 1538.000000)">
                <path d="M89.3901733,50.5195503 L90.0713479,50.5271583 C100.733887,50.7353726 110.402906,54.9916656 117.610776,61.8202485 C118.764396,62.9130919 118.760175,64.7524115 117.603179,65.8415971 L117.603179,65.8415971 L110.204258,72.805238 C109.145461,73.8018526 107.506758,73.7956625 106.430234,72.8184624 C101.885255,68.6938508 95.8566087,66.1767095 89.2503085,66.1767095 C74.8019284,66.1767095 63.1112616,78.2120553 63.6773792,92.7839571 C64.2055118,106.378096 75.4541455,117.260948 89.0581324,117.361397 C100.269907,117.44412 109.846636,110.276486 113.38262,100.279388 L113.38262,100.279388 L93.238174,100.279388 C91.7117385,100.279388 90.4739892,99.0419205 90.4739892,97.5152037 L90.4739892,97.5152037 L90.4739892,87.3861436 C90.4739892,85.8594267 91.7114571,84.6219589 93.238174,84.6219589 L93.238174,84.6219589 L130.484888,84.6219589 C130.484888,84.6219589 130.463785,93.8174313 130.431709,94.0895167 C129.227724,115.791349 111.253208,133.01939 89.2503085,133.01939 C66.3706585,133.01939 47.8415607,114.392093 48.0013792,91.4753025 C48.1597908,68.7293035 67.3292882,50.0831555 90.0713479,50.5271583 Z M149.209006,53.2227919 C150.199734,53.2227919 151.002735,54.0257922 151.002735,55.0165204 L151.002735,55.0165204 L151.002735,62.3449922 L158.331206,62.3449922 C159.321935,62.3449922 160.124935,63.1479925 160.124935,64.1387207 L160.124935,64.1387207 L160.124935,70.3068632 C160.124935,71.2975914 159.321935,72.1005917 158.331206,72.1005917 L158.331206,72.1005917 L151.002735,72.1005917 L151.002735,79.4290634 C151.002735,80.4197916 150.199734,81.2227919 149.209006,81.2227919 L149.209006,81.2227919 L143.040864,81.2227919 C142.050135,81.2227919 141.247135,80.4197916 141.247135,79.4290634 L141.247135,79.4290634 L141.247135,72.1005917 L133.918663,72.1005917 C132.927935,72.1005917 132.124935,71.2975914 132.124935,70.3068632 L132.124935,70.3068632 L132.124935,64.1387207 C132.124935,63.1479925 132.927935,62.3449922 133.918663,62.3449922 L133.918663,62.3449922 L141.247135,62.3449922 L141.247135,55.0165204 C141.247135,54.0257922 142.050135,53.2227919 143.040864,53.2227919 L143.040864,53.2227919 Z" id="Combined-Shape"></path>
            </g>
        </g>
    </g>
</svg>