<?xml version="1.0" encoding="UTF-8"?>
<svg width="32px" height="32px" viewBox="0 0 32 32" version="1.1" xmlns="http://www.w3.org/2000/svg" xmlns:xlink="http://www.w3.org/1999/xlink">
    <!-- Generator: Sketch 55.2 (78181) - https://sketchapp.com -->
    <title>Shape</title>
    <desc>Created with Sketch.</desc>
    <defs>
        <filter x="-4.7%" y="-2.5%" width="109.4%" height="105.0%" filterUnits="objectBoundingBox" id="filter-1">
            <feOffset dx="2" dy="2" in="SourceAlpha" result="shadowOffsetOuter1"></feOffset>
            <feGaussianBlur stdDeviation="2" in="shadowOffsetOuter1" result="shadowBlurOuter1"></feGaussianBlur>
            <feColorMatrix values="0 0 0 0 0   0 0 0 0 0   0 0 0 0 0  0 0 0 0.5 0" type="matrix" in="shadowBlurOuter1" result="shadowMatrixOuter1"></feColorMatrix>
            <feMerge>
                <feMergeNode in="shadowMatrixOuter1"></feMergeNode>
                <feMergeNode in="SourceGraphic"></feMergeNode>
            </feMerge>
        </filter>
        <path d="M20.9995344,13 C14.9252063,13 10,17.9252063 10,23.9995344 C10,30.0738624 14.9252063,35 20.9995344,35 C27.0738624,35 32,30.0738624 32,23.9995344 C32,17.9252063 27.0738624,13 20.9995344,13 Z M23.2893968,30.0477884 C22.7232169,30.2712804 22.2725079,30.4407619 21.9344762,30.5580952 C21.5973757,30.6754286 21.2053333,30.7340952 20.7592804,30.7340952 C20.0739048,30.7340952 19.5403175,30.5664762 19.160381,30.2321693 C18.7804444,29.8978624 18.5914074,29.4741587 18.5914074,28.9591958 C18.5914074,28.7589841 18.6053757,28.5541164 18.6333122,28.3455238 C18.6621799,28.1369312 18.7078095,27.9022646 18.7702011,27.6387302 L19.4788571,25.135619 C19.5412487,24.8953651 19.5952593,24.6672169 19.6380952,24.4548995 C19.6809312,24.2407196 19.701418,24.0442328 19.701418,23.8654392 C19.701418,23.546963 19.6353016,23.3234709 19.504,23.1977566 C19.370836,23.0720423 19.1203386,23.010582 18.7469206,23.010582 C18.5644021,23.010582 18.3762963,23.0375873 18.1835344,23.0943915 C17.9926349,23.1530582 17.8268783,23.2061376 17.6909206,23.2582857 L17.8780952,22.4872381 C18.3418413,22.2982011 18.7860317,22.1361693 19.2097354,22.0020741 C19.6334392,21.8661164 20.0338624,21.7990688 20.4110053,21.7990688 C21.0917249,21.7990688 21.6169312,21.9648254 21.9866243,22.2926138 C22.354455,22.6213333 22.5397672,23.0487619 22.5397672,23.5739683 C22.5397672,23.6829206 22.5267302,23.8747513 22.5015873,24.1485291 C22.4764444,24.4232381 22.4289524,24.6737354 22.3600423,24.903746 L21.6551111,27.3994074 C21.5973757,27.599619 21.5461587,27.8286984 21.4995979,28.0847831 C21.4539683,28.3408677 21.431619,28.5364233 21.431619,28.6677249 C21.431619,28.9992381 21.5051852,29.2255238 21.6541799,29.3456508 C21.8013122,29.4657778 22.0592593,29.5263069 22.4242963,29.5263069 C22.5965714,29.5263069 22.7893333,29.4955767 23.0072381,29.4359788 C23.2232804,29.376381 23.3797249,29.3233016 23.4784339,29.277672 L23.2893968,30.0477884 Z M23.1646138,19.9180106 C22.8358942,20.2234497 22.440127,20.3761693 21.9773122,20.3761693 C21.5154286,20.3761693 21.1168677,20.2234497 20.7853545,19.9180106 C20.4557037,19.6125714 20.2890159,19.2410159 20.2890159,18.8070688 C20.2890159,18.3740529 20.4566349,18.0015661 20.7853545,17.6933333 C21.1168677,17.3841693 21.5154286,17.2305185 21.9773122,17.2305185 C22.440127,17.2305185 22.8368254,17.3841693 23.1646138,17.6933333 C23.4933333,18.0015661 23.6581587,18.3740529 23.6581587,18.8070688 C23.6581587,19.2419471 23.4933333,19.6125714 23.1646138,19.9180106 Z" id="path-2"></path>
        <filter x="-15.9%" y="-11.4%" width="131.8%" height="131.8%" filterUnits="objectBoundingBox" id="filter-3">
            <feOffset dx="0" dy="1" in="SourceAlpha" result="shadowOffsetOuter1"></feOffset>
            <feGaussianBlur stdDeviation="1" in="shadowOffsetOuter1" result="shadowBlurOuter1"></feGaussianBlur>
            <feColorMatrix values="0 0 0 0 0   0 0 0 0 0   0 0 0 0 0  0 0 0 0.5 0" type="matrix" in="shadowBlurOuter1"></feColorMatrix>
        </filter>
    </defs>
    <g id="Page-1" stroke="none" stroke-width="1" fill="none" fill-rule="evenodd">
        <g id="Betting-help" transform="translate(-59.000000, -91.000000)" fill-rule="nonzero">
            <g id="Make-a-Prediction" filter="url(#filter-1)" transform="translate(52.000000, 80.000000)">
                <g id="Shape">
                    <use fill="black" fill-opacity="1" filter="url(#filter-3)" xlink:href="#path-2"></use>
                    <use fill="#FFFFFF" xlink:href="#path-2"></use>
                </g>
            </g>
        </g>
    </g>
</svg>