<?xml version="1.0"?>
<svg xmlns="http://www.w3.org/2000/svg" id="Layer_1" data-name="Layer 1" viewBox="0 0 512 512" width="512" height="512"><title>pin location navigation</title><path d="M154.154,174.319a47.368,47.368,0,1,0-47.368-47.368A47.421,47.421,0,0,0,154.154,174.319Zm0-82.735a35.368,35.368,0,1,1-35.368,35.367A35.407,35.407,0,0,1,154.154,91.584Z"/><path d="M426.482,216.649v-83.3a42.819,42.819,0,0,0-42.771-42.771H371.326V87.381A42.82,42.82,0,0,0,328.554,44.61H52.771A42.819,42.819,0,0,0,10,87.381V272.443a42.82,42.82,0,0,0,42.771,42.772H65.157v3.192a42.82,42.82,0,0,0,42.771,42.772h133.22c11.892,60.46,65.293,106.211,129.187,106.211,72.6,0,131.665-59.065,131.665-131.665A131.832,131.832,0,0,0,426.482,216.649ZM383.711,102.574a30.806,30.806,0,0,1,30.771,30.771v78.337a131.006,131.006,0,0,0-43.156-7.61v-101.5ZM52.771,56.61H328.554a30.806,30.806,0,0,1,30.772,30.771V204.53a130.788,130.788,0,0,0-58.76,19.521l-27.88-17.91a26.9,26.9,0,0,0-35.008,3.457l-27.866,29.038-64.326-39.907A27.126,27.126,0,0,0,114.6,200.37L22,261.7V87.381A30.806,30.806,0,0,1,52.771,56.61Zm193.565,161.3a14.971,14.971,0,0,1,19.547-1.88c.07.05.142.1.215.145l23.814,15.3a131.623,131.623,0,0,0-47.171,71.746H164.473Zm-224.13,58.05,99.222-65.716c.145-.095.285-.2.421-.3a15.092,15.092,0,0,1,17.311-1.009l62.158,38.561-53.477,55.727H52.771A30.812,30.812,0,0,1,22.206,275.956Zm85.722,73.223a30.806,30.806,0,0,1-30.771-30.772v-3.192H240.274a132.369,132.369,0,0,0-.922,33.964ZM370.335,455.39A119.665,119.665,0,1,1,490,335.725,119.8,119.8,0,0,1,370.335,455.39Z"/><path d="M429.948,276.11a50.86,50.86,0,0,0-75.918,67.435l-56.45,56.449a6,6,0,0,0,8.486,8.485l56.446-56.447a50.862,50.862,0,0,0,67.436-75.921Zm-8.485,63.452a38.849,38.849,0,1,1,0-54.965h0A38.911,38.911,0,0,1,421.463,339.562Z"/><path d="M412.654,318.628a12.852,12.852,0,0,1-11.25,11.249,6,6,0,0,0,.71,11.958,6.115,6.115,0,0,0,.724-.044,24.824,24.824,0,0,0,21.73-21.729,6,6,0,1,0-11.914-1.434Z"/></svg>
