<?xml version="1.0" encoding="UTF-8"?>
<svg width="30px" height="30px" viewBox="0 0 30 30" version="1.1" xmlns="http://www.w3.org/2000/svg" xmlns:xlink="http://www.w3.org/1999/xlink">
    <!-- Generator: Sketch 57.1 (83088) - https://sketch.com -->
    <title>Searchmdpi</title>
    <desc>Created with Sketch.</desc>
    <g id="BB-Football" stroke="none" stroke-width="1" fill="none" fill-rule="evenodd">
        <g id="Pick-team" transform="translate(-30.000000, -163.000000)" fill="#FFFFFF">
            <g id="Search-team-" transform="translate(30.000000, 162.000000)">
                <g id="Search" transform="translate(0.000000, 1.000000)">
                    <path d="M21.5827609,17.7324654 L28.2458361,24.3960793 C29.3096296,25.4595735 29.3096296,27.1843771 28.2457763,28.2461953 C27.1842574,29.3097493 25.4594538,29.3097493 24.3956603,28.2461953 L24.3956603,28.2461953 L17.7320464,21.5825814 C19.2760793,20.5897194 20.5899588,19.2764983 21.5827609,17.7324654 L21.5827609,17.7324654 Z M10.8914927,0 C16.9062477,0 21.7828058,4.87679761 21.7828058,10.8914328 C21.7828058,16.9060681 16.9062477,21.7826263 10.8914927,21.7826263 C4.87685746,21.7826263 5.98578372e-05,16.9060681 5.98578372e-05,10.8914328 C5.98578372e-05,4.87679761 4.87685746,0 10.8914927,0 Z M10.8914927,19.0596932 C6.38707071,19.0596932 2.72299289,15.3959147 2.72299289,10.8914927 C2.72299289,6.38707071 6.38707071,2.72299289 10.8914927,2.72299289 C15.395795,2.72299289 19.0601721,6.38707071 19.0601721,10.8914927 C19.0601721,15.3959147 15.395795,19.0596932 10.8914927,19.0596932 L10.8914927,19.0596932 Z" id="Shape"></path>
                    <path d="M4.53824168,10.8914328 L6.35325103,10.8914328 C6.35325103,8.38919566 8.38925552,6.35337074 10.8914328,6.35337074 L10.8914328,4.53818182 C7.38873176,4.53818182 4.53824168,7.3886719 4.53824168,10.8914328 L4.53824168,10.8914328 Z" id="Shape"></path>
                </g>
            </g>
        </g>
    </g>
</svg>